<mxfile host="app.diagrams.net" modified="2024-03-12T22:12:25.375Z" agent="Mozilla/5.0 (X11; Linux x86_64; rv:109.0) Gecko/20100101 Firefox/115.0" etag="f2B_agUn82Ao4Fulk_H2" version="24.0.5" type="github">
  <diagram id="R2lEEEUBdFMjLlhIrx00" name="Page-1">
    <mxGraphModel dx="2284" dy="1895" grid="1" gridSize="10" guides="1" tooltips="1" connect="1" arrows="1" fold="1" page="1" pageScale="1" pageWidth="850" pageHeight="1100" math="0" shadow="0" extFonts="Permanent Marker^https://fonts.googleapis.com/css?family=Permanent+Marker">
      <root>
        <mxCell id="0" />
        <mxCell id="1" parent="0" />
        <mxCell id="Hs6Z9RxVhv4b60qR8Emr-23" value="" style="edgeStyle=orthogonalEdgeStyle;rounded=0;orthogonalLoop=1;jettySize=auto;html=1;endArrow=none;endFill=0;" parent="1" source="Hs6Z9RxVhv4b60qR8Emr-10" target="Hs6Z9RxVhv4b60qR8Emr-22" edge="1">
          <mxGeometry relative="1" as="geometry" />
        </mxCell>
        <mxCell id="Hs6Z9RxVhv4b60qR8Emr-31" value="" style="edgeStyle=orthogonalEdgeStyle;rounded=0;orthogonalLoop=1;jettySize=auto;html=1;strokeColor=default;align=center;verticalAlign=middle;fontFamily=Helvetica;fontSize=11;fontColor=default;labelBackgroundColor=default;endArrow=none;endFill=0;" parent="1" source="Hs6Z9RxVhv4b60qR8Emr-10" target="Hs6Z9RxVhv4b60qR8Emr-26" edge="1">
          <mxGeometry relative="1" as="geometry" />
        </mxCell>
        <mxCell id="Hs6Z9RxVhv4b60qR8Emr-90" value="" style="edgeStyle=orthogonalEdgeStyle;rounded=0;orthogonalLoop=1;jettySize=auto;html=1;strokeColor=default;align=center;verticalAlign=middle;fontFamily=Helvetica;fontSize=11;fontColor=default;labelBackgroundColor=default;endArrow=none;endFill=0;entryX=0.25;entryY=1;entryDx=0;entryDy=0;" parent="1" source="Hs6Z9RxVhv4b60qR8Emr-10" target="Hs6Z9RxVhv4b60qR8Emr-61" edge="1">
          <mxGeometry relative="1" as="geometry">
            <mxPoint x="180" y="230" as="targetPoint" />
            <Array as="points">
              <mxPoint x="180" y="130" />
              <mxPoint x="180" y="440" />
              <mxPoint x="570" y="440" />
            </Array>
          </mxGeometry>
        </mxCell>
        <mxCell id="Hs6Z9RxVhv4b60qR8Emr-10" value="&lt;div&gt;Matches&lt;/div&gt;" style="whiteSpace=wrap;html=1;fillColor=#e1d5e7;strokeColor=#9673a6;labelBackgroundColor=none;" parent="1" vertex="1">
          <mxGeometry x="-20" y="90" width="120" height="60" as="geometry" />
        </mxCell>
        <mxCell id="Hs6Z9RxVhv4b60qR8Emr-20" value="&lt;div&gt;Match Types&lt;/div&gt;" style="whiteSpace=wrap;html=1;fillColor=#e1d5e7;strokeColor=#9673a6;" parent="1" vertex="1">
          <mxGeometry x="-20" y="-170" width="120" height="60" as="geometry" />
        </mxCell>
        <mxCell id="Hs6Z9RxVhv4b60qR8Emr-25" value="" style="edgeStyle=orthogonalEdgeStyle;rounded=0;orthogonalLoop=1;jettySize=auto;html=1;endArrow=none;endFill=0;" parent="1" source="Hs6Z9RxVhv4b60qR8Emr-22" target="Hs6Z9RxVhv4b60qR8Emr-24" edge="1">
          <mxGeometry relative="1" as="geometry">
            <Array as="points">
              <mxPoint x="580" y="20" />
            </Array>
          </mxGeometry>
        </mxCell>
        <mxCell id="Hs6Z9RxVhv4b60qR8Emr-34" value="" style="edgeStyle=orthogonalEdgeStyle;rounded=0;orthogonalLoop=1;jettySize=auto;html=1;strokeColor=default;align=center;verticalAlign=middle;fontFamily=Helvetica;fontSize=11;fontColor=default;labelBackgroundColor=default;endArrow=none;endFill=0;" parent="1" source="Hs6Z9RxVhv4b60qR8Emr-22" target="Hs6Z9RxVhv4b60qR8Emr-33" edge="1">
          <mxGeometry relative="1" as="geometry" />
        </mxCell>
        <mxCell id="pNn8hwGSQoI09kQlvMrT-37" value="" style="edgeStyle=none;rounded=0;orthogonalLoop=1;jettySize=auto;html=1;strokeColor=default;align=center;verticalAlign=middle;fontFamily=Helvetica;fontSize=11;fontColor=default;labelBackgroundColor=default;endArrow=none;" parent="1" source="Hs6Z9RxVhv4b60qR8Emr-22" target="pNn8hwGSQoI09kQlvMrT-32" edge="1">
          <mxGeometry relative="1" as="geometry" />
        </mxCell>
        <mxCell id="Hs6Z9RxVhv4b60qR8Emr-22" value="Has" style="shape=associativeEntity;whiteSpace=wrap;html=1;align=center;fillColor=#dae8fc;strokeColor=#6c8ebf;labelBackgroundColor=none;" parent="1" vertex="1">
          <mxGeometry x="310" y="-10" width="140" height="60" as="geometry" />
        </mxCell>
        <mxCell id="Hs6Z9RxVhv4b60qR8Emr-60" value="" style="edgeStyle=orthogonalEdgeStyle;rounded=0;orthogonalLoop=1;jettySize=auto;html=1;strokeColor=default;align=center;verticalAlign=middle;fontFamily=Helvetica;fontSize=11;fontColor=default;labelBackgroundColor=default;endArrow=none;endFill=0;" parent="1" source="Hs6Z9RxVhv4b60qR8Emr-24" target="Hs6Z9RxVhv4b60qR8Emr-59" edge="1">
          <mxGeometry relative="1" as="geometry" />
        </mxCell>
        <mxCell id="Hs6Z9RxVhv4b60qR8Emr-125" value="" style="edgeStyle=orthogonalEdgeStyle;rounded=0;orthogonalLoop=1;jettySize=auto;html=1;strokeColor=default;align=center;verticalAlign=middle;fontFamily=Helvetica;fontSize=11;fontColor=default;labelBackgroundColor=default;endArrow=none;endFill=0;entryX=0.5;entryY=0;entryDx=0;entryDy=0;" parent="1" source="Hs6Z9RxVhv4b60qR8Emr-24" target="Hs6Z9RxVhv4b60qR8Emr-117" edge="1">
          <mxGeometry relative="1" as="geometry">
            <mxPoint x="1130" y="220" as="targetPoint" />
            <Array as="points">
              <mxPoint x="600" y="60" />
              <mxPoint x="1390" y="60" />
            </Array>
          </mxGeometry>
        </mxCell>
        <mxCell id="Hs6Z9RxVhv4b60qR8Emr-24" value="&lt;div&gt;Teams&lt;/div&gt;" style="whiteSpace=wrap;html=1;fillColor=#e1d5e7;strokeColor=#9673a6;labelBackgroundColor=none;" parent="1" vertex="1">
          <mxGeometry x="540" y="90" width="120" height="60" as="geometry" />
        </mxCell>
        <mxCell id="Hs6Z9RxVhv4b60qR8Emr-32" value="" style="edgeStyle=orthogonalEdgeStyle;rounded=0;orthogonalLoop=1;jettySize=auto;html=1;strokeColor=default;align=center;verticalAlign=middle;fontFamily=Helvetica;fontSize=11;fontColor=default;labelBackgroundColor=default;endArrow=none;endFill=0;" parent="1" source="Hs6Z9RxVhv4b60qR8Emr-26" target="Hs6Z9RxVhv4b60qR8Emr-20" edge="1">
          <mxGeometry relative="1" as="geometry" />
        </mxCell>
        <mxCell id="Hs6Z9RxVhv4b60qR8Emr-26" value="Has" style="shape=rhombus;perimeter=rhombusPerimeter;whiteSpace=wrap;html=1;align=center;fillColor=#dae8fc;strokeColor=#6c8ebf;labelBackgroundColor=none;" parent="1" vertex="1">
          <mxGeometry x="-20" y="-40" width="120" height="60" as="geometry" />
        </mxCell>
        <mxCell id="Hs6Z9RxVhv4b60qR8Emr-33" value="Groups" style="whiteSpace=wrap;html=1;fillColor=#e1d5e7;strokeColor=#9673a6;labelBackgroundColor=none;" parent="1" vertex="1">
          <mxGeometry x="320" y="-170" width="120" height="60" as="geometry" />
        </mxCell>
        <mxCell id="Hs6Z9RxVhv4b60qR8Emr-39" value="" style="edgeStyle=orthogonalEdgeStyle;rounded=0;orthogonalLoop=1;jettySize=auto;html=1;strokeColor=default;align=center;verticalAlign=middle;fontFamily=Helvetica;fontSize=11;fontColor=default;labelBackgroundColor=default;endArrow=none;endFill=0;" parent="1" source="Hs6Z9RxVhv4b60qR8Emr-35" target="Hs6Z9RxVhv4b60qR8Emr-24" edge="1">
          <mxGeometry relative="1" as="geometry">
            <Array as="points">
              <mxPoint x="1201" y="120" />
            </Array>
          </mxGeometry>
        </mxCell>
        <mxCell id="Hs6Z9RxVhv4b60qR8Emr-40" value="" style="edgeStyle=orthogonalEdgeStyle;rounded=0;orthogonalLoop=1;jettySize=auto;html=1;strokeColor=default;align=center;verticalAlign=middle;fontFamily=Helvetica;fontSize=11;fontColor=default;labelBackgroundColor=default;endArrow=none;endFill=0;" parent="1" source="Hs6Z9RxVhv4b60qR8Emr-35" target="Hs6Z9RxVhv4b60qR8Emr-36" edge="1">
          <mxGeometry relative="1" as="geometry" />
        </mxCell>
        <mxCell id="Hs6Z9RxVhv4b60qR8Emr-66" value="" style="edgeStyle=orthogonalEdgeStyle;rounded=0;orthogonalLoop=1;jettySize=auto;html=1;strokeColor=default;align=center;verticalAlign=middle;fontFamily=Helvetica;fontSize=11;fontColor=default;labelBackgroundColor=default;endArrow=none;endFill=0;entryX=1;entryY=0.5;entryDx=0;entryDy=0;exitX=0.25;exitY=0;exitDx=0;exitDy=0;" parent="1" source="Hs6Z9RxVhv4b60qR8Emr-35" target="Hs6Z9RxVhv4b60qR8Emr-61" edge="1">
          <mxGeometry relative="1" as="geometry">
            <mxPoint x="850" y="230" as="targetPoint" />
            <Array as="points">
              <mxPoint x="1171" y="300" />
              <mxPoint x="710" y="300" />
              <mxPoint x="710" y="390" />
            </Array>
          </mxGeometry>
        </mxCell>
        <mxCell id="Hs6Z9RxVhv4b60qR8Emr-35" value="Cities" style="whiteSpace=wrap;html=1;fontFamily=Helvetica;fontSize=11;labelBackgroundColor=none;fillColor=#e1d5e7;strokeColor=#9673a6;" parent="1" vertex="1">
          <mxGeometry x="1141" y="310" width="120" height="60" as="geometry" />
        </mxCell>
        <mxCell id="Hs6Z9RxVhv4b60qR8Emr-41" value="" style="edgeStyle=orthogonalEdgeStyle;rounded=0;orthogonalLoop=1;jettySize=auto;html=1;strokeColor=default;align=center;verticalAlign=middle;fontFamily=Helvetica;fontSize=11;fontColor=default;labelBackgroundColor=default;endArrow=none;endFill=0;" parent="1" source="Hs6Z9RxVhv4b60qR8Emr-36" target="Hs6Z9RxVhv4b60qR8Emr-37" edge="1">
          <mxGeometry relative="1" as="geometry" />
        </mxCell>
        <mxCell id="Hs6Z9RxVhv4b60qR8Emr-36" value="Districts" style="whiteSpace=wrap;html=1;fontFamily=Helvetica;fontSize=11;labelBackgroundColor=none;fillColor=#e1d5e7;strokeColor=#9673a6;" parent="1" vertex="1">
          <mxGeometry x="1141" y="405" width="120" height="60" as="geometry" />
        </mxCell>
        <mxCell id="Hs6Z9RxVhv4b60qR8Emr-37" value="Countries" style="whiteSpace=wrap;html=1;fontFamily=Helvetica;fontSize=11;labelBackgroundColor=none;fillColor=#e1d5e7;strokeColor=#9673a6;" parent="1" vertex="1">
          <mxGeometry x="1141" y="500" width="120" height="60" as="geometry" />
        </mxCell>
        <mxCell id="Hs6Z9RxVhv4b60qR8Emr-42" value="&lt;div&gt;1&lt;/div&gt;" style="text;html=1;align=center;verticalAlign=middle;resizable=0;points=[];autosize=1;strokeColor=none;fillColor=none;fontFamily=Helvetica;fontSize=11;fontColor=default;labelBackgroundColor=default;" parent="1" vertex="1">
          <mxGeometry x="1201" y="478" width="30" height="30" as="geometry" />
        </mxCell>
        <mxCell id="Hs6Z9RxVhv4b60qR8Emr-43" value="N" style="text;html=1;align=center;verticalAlign=middle;resizable=0;points=[];autosize=1;strokeColor=none;fillColor=none;fontFamily=Helvetica;fontSize=11;fontColor=default;labelBackgroundColor=default;" parent="1" vertex="1">
          <mxGeometry x="1201" y="460" width="30" height="30" as="geometry" />
        </mxCell>
        <mxCell id="Hs6Z9RxVhv4b60qR8Emr-44" value="1" style="text;html=1;align=center;verticalAlign=middle;resizable=0;points=[];autosize=1;strokeColor=none;fillColor=none;fontFamily=Helvetica;fontSize=11;fontColor=default;labelBackgroundColor=default;" parent="1" vertex="1">
          <mxGeometry x="1201" y="380" width="30" height="30" as="geometry" />
        </mxCell>
        <mxCell id="Hs6Z9RxVhv4b60qR8Emr-45" value="N" style="text;html=1;align=center;verticalAlign=middle;resizable=0;points=[];autosize=1;strokeColor=none;fillColor=none;fontFamily=Helvetica;fontSize=11;fontColor=default;labelBackgroundColor=default;" parent="1" vertex="1">
          <mxGeometry x="1201" y="360" width="30" height="30" as="geometry" />
        </mxCell>
        <mxCell id="Hs6Z9RxVhv4b60qR8Emr-46" value="1" style="text;html=1;align=center;verticalAlign=middle;resizable=0;points=[];autosize=1;strokeColor=none;fillColor=none;fontFamily=Helvetica;fontSize=11;fontColor=default;labelBackgroundColor=default;" parent="1" vertex="1">
          <mxGeometry x="1195" y="280" width="30" height="30" as="geometry" />
        </mxCell>
        <mxCell id="Hs6Z9RxVhv4b60qR8Emr-47" value="N" style="text;html=1;align=center;verticalAlign=middle;resizable=0;points=[];autosize=1;strokeColor=none;fillColor=none;fontFamily=Helvetica;fontSize=11;fontColor=default;labelBackgroundColor=default;" parent="1" vertex="1">
          <mxGeometry x="660" y="90" width="30" height="30" as="geometry" />
        </mxCell>
        <mxCell id="Hs6Z9RxVhv4b60qR8Emr-55" value="M" style="text;html=1;align=center;verticalAlign=middle;resizable=0;points=[];autosize=1;strokeColor=none;fillColor=none;fontFamily=Helvetica;fontSize=11;fontColor=default;labelBackgroundColor=default;" parent="1" vertex="1">
          <mxGeometry x="546" y="60" width="30" height="30" as="geometry" />
        </mxCell>
        <mxCell id="Hs6Z9RxVhv4b60qR8Emr-56" value="N" style="text;html=1;align=center;verticalAlign=middle;resizable=0;points=[];autosize=1;strokeColor=none;fillColor=none;fontFamily=Helvetica;fontSize=11;fontColor=default;labelBackgroundColor=default;" parent="1" vertex="1">
          <mxGeometry x="100" y="90" width="30" height="30" as="geometry" />
        </mxCell>
        <mxCell id="Hs6Z9RxVhv4b60qR8Emr-57" value="1" style="text;html=1;align=center;verticalAlign=middle;resizable=0;points=[];autosize=1;strokeColor=none;fillColor=none;fontFamily=Helvetica;fontSize=11;fontColor=default;labelBackgroundColor=default;" parent="1" vertex="1">
          <mxGeometry x="380" y="-110" width="30" height="30" as="geometry" />
        </mxCell>
        <mxCell id="Hs6Z9RxVhv4b60qR8Emr-62" value="" style="edgeStyle=orthogonalEdgeStyle;rounded=0;orthogonalLoop=1;jettySize=auto;html=1;strokeColor=default;align=center;verticalAlign=middle;fontFamily=Helvetica;fontSize=11;fontColor=default;labelBackgroundColor=default;endArrow=none;endFill=0;" parent="1" source="Hs6Z9RxVhv4b60qR8Emr-59" target="Hs6Z9RxVhv4b60qR8Emr-61" edge="1">
          <mxGeometry relative="1" as="geometry" />
        </mxCell>
        <mxCell id="Hs6Z9RxVhv4b60qR8Emr-59" value="In" style="shape=associativeEntity;whiteSpace=wrap;html=1;align=center;fillColor=#dae8fc;strokeColor=#6c8ebf;labelBackgroundColor=none;" parent="1" vertex="1">
          <mxGeometry x="530" y="220" width="140" height="60" as="geometry" />
        </mxCell>
        <mxCell id="Hs6Z9RxVhv4b60qR8Emr-73" value="" style="edgeStyle=orthogonalEdgeStyle;rounded=0;orthogonalLoop=1;jettySize=auto;html=1;strokeColor=default;align=center;verticalAlign=middle;fontFamily=Helvetica;fontSize=11;fontColor=default;labelBackgroundColor=default;endArrow=none;endFill=0;" parent="1" source="Hs6Z9RxVhv4b60qR8Emr-61" target="Hs6Z9RxVhv4b60qR8Emr-72" edge="1">
          <mxGeometry relative="1" as="geometry" />
        </mxCell>
        <mxCell id="Hs6Z9RxVhv4b60qR8Emr-119" value="" style="edgeStyle=orthogonalEdgeStyle;rounded=0;orthogonalLoop=1;jettySize=auto;html=1;strokeColor=default;align=center;verticalAlign=middle;fontFamily=Helvetica;fontSize=11;fontColor=default;labelBackgroundColor=default;endArrow=none;endFill=0;" parent="1" source="Hs6Z9RxVhv4b60qR8Emr-61" target="Hs6Z9RxVhv4b60qR8Emr-117" edge="1">
          <mxGeometry relative="1" as="geometry">
            <Array as="points">
              <mxPoint x="630" y="640" />
            </Array>
          </mxGeometry>
        </mxCell>
        <mxCell id="Hs6Z9RxVhv4b60qR8Emr-61" value="Competitions" style="whiteSpace=wrap;html=1;fillColor=#e1d5e7;strokeColor=#9673a6;labelBackgroundColor=none;" parent="1" vertex="1">
          <mxGeometry x="540" y="360" width="120" height="60" as="geometry" />
        </mxCell>
        <mxCell id="Hs6Z9RxVhv4b60qR8Emr-63" value="N" style="text;html=1;align=center;verticalAlign=middle;resizable=0;points=[];autosize=1;strokeColor=none;fillColor=none;fontFamily=Helvetica;fontSize=11;fontColor=default;labelBackgroundColor=default;" parent="1" vertex="1">
          <mxGeometry x="600" y="150" width="30" height="30" as="geometry" />
        </mxCell>
        <mxCell id="Hs6Z9RxVhv4b60qR8Emr-64" value="M" style="text;html=1;align=center;verticalAlign=middle;resizable=0;points=[];autosize=1;strokeColor=none;fillColor=none;fontFamily=Helvetica;fontSize=11;fontColor=default;labelBackgroundColor=default;" parent="1" vertex="1">
          <mxGeometry x="600" y="330" width="30" height="30" as="geometry" />
        </mxCell>
        <mxCell id="Hs6Z9RxVhv4b60qR8Emr-69" value="N" style="text;html=1;align=center;verticalAlign=middle;resizable=0;points=[];autosize=1;strokeColor=none;fillColor=none;fontFamily=Helvetica;fontSize=11;fontColor=default;labelBackgroundColor=default;" parent="1" vertex="1">
          <mxGeometry x="660" y="390" width="30" height="30" as="geometry" />
        </mxCell>
        <mxCell id="Hs6Z9RxVhv4b60qR8Emr-70" value="1" style="text;html=1;align=center;verticalAlign=middle;resizable=0;points=[];autosize=1;strokeColor=none;fillColor=none;fontFamily=Helvetica;fontSize=11;fontColor=default;labelBackgroundColor=default;" parent="1" vertex="1">
          <mxGeometry x="1150" y="270" width="30" height="30" as="geometry" />
        </mxCell>
        <mxCell id="Hs6Z9RxVhv4b60qR8Emr-75" value="" style="edgeStyle=orthogonalEdgeStyle;rounded=0;orthogonalLoop=1;jettySize=auto;html=1;strokeColor=default;align=center;verticalAlign=middle;fontFamily=Helvetica;fontSize=11;fontColor=default;labelBackgroundColor=default;endArrow=none;endFill=0;exitX=0.5;exitY=0;exitDx=0;exitDy=0;entryX=0.5;entryY=1;entryDx=0;entryDy=0;" parent="1" source="Hs6Z9RxVhv4b60qR8Emr-72" target="Hs6Z9RxVhv4b60qR8Emr-79" edge="1">
          <mxGeometry relative="1" as="geometry">
            <mxPoint x="320" y="280" as="targetPoint" />
            <Array as="points">
              <mxPoint x="316" y="360" />
            </Array>
          </mxGeometry>
        </mxCell>
        <mxCell id="Hs6Z9RxVhv4b60qR8Emr-72" value="Alliances" style="whiteSpace=wrap;html=1;fillColor=#e1d5e7;strokeColor=#9673a6;labelBackgroundColor=none;" parent="1" vertex="1">
          <mxGeometry x="260" y="360" width="120" height="60" as="geometry" />
        </mxCell>
        <mxCell id="Hs6Z9RxVhv4b60qR8Emr-78" value="" style="edgeStyle=orthogonalEdgeStyle;rounded=0;orthogonalLoop=1;jettySize=auto;html=1;strokeColor=default;align=center;verticalAlign=middle;fontFamily=Helvetica;fontSize=11;fontColor=default;labelBackgroundColor=default;endArrow=none;endFill=0;entryX=0;entryY=0.75;entryDx=0;entryDy=0;exitX=1;exitY=0.5;exitDx=0;exitDy=0;" parent="1" source="Hs6Z9RxVhv4b60qR8Emr-79" target="Hs6Z9RxVhv4b60qR8Emr-24" edge="1">
          <mxGeometry relative="1" as="geometry">
            <mxPoint x="460" y="250" as="sourcePoint" />
            <mxPoint x="260" y="250" as="targetPoint" />
          </mxGeometry>
        </mxCell>
        <mxCell id="Hs6Z9RxVhv4b60qR8Emr-79" value="In" style="shape=associativeEntity;whiteSpace=wrap;html=1;align=center;fontFamily=Helvetica;fontSize=11;labelBackgroundColor=none;fillColor=#dae8fc;strokeColor=#6c8ebf;" parent="1" vertex="1">
          <mxGeometry x="246" y="178" width="140" height="60" as="geometry" />
        </mxCell>
        <mxCell id="Hs6Z9RxVhv4b60qR8Emr-80" value="1" style="text;html=1;align=center;verticalAlign=middle;resizable=0;points=[];autosize=1;strokeColor=none;fillColor=none;fontFamily=Helvetica;fontSize=11;fontColor=default;labelBackgroundColor=default;" parent="1" vertex="1">
          <mxGeometry x="516" y="358" width="30" height="30" as="geometry" />
        </mxCell>
        <mxCell id="Hs6Z9RxVhv4b60qR8Emr-81" value="N" style="text;html=1;align=center;verticalAlign=middle;resizable=0;points=[];autosize=1;strokeColor=none;fillColor=none;fontFamily=Helvetica;fontSize=11;fontColor=default;labelBackgroundColor=default;" parent="1" vertex="1">
          <mxGeometry x="380" y="355" width="30" height="30" as="geometry" />
        </mxCell>
        <mxCell id="Hs6Z9RxVhv4b60qR8Emr-84" value="N" style="text;html=1;align=center;verticalAlign=middle;resizable=0;points=[];autosize=1;strokeColor=none;fillColor=none;fontFamily=Helvetica;fontSize=11;fontColor=default;labelBackgroundColor=default;" parent="1" vertex="1">
          <mxGeometry x="320" y="328" width="30" height="30" as="geometry" />
        </mxCell>
        <mxCell id="Hs6Z9RxVhv4b60qR8Emr-88" value="M" style="text;html=1;align=center;verticalAlign=middle;resizable=0;points=[];autosize=1;strokeColor=none;fillColor=none;fontFamily=Helvetica;fontSize=11;fontColor=default;labelBackgroundColor=default;" parent="1" vertex="1">
          <mxGeometry x="510" y="140" width="30" height="30" as="geometry" />
        </mxCell>
        <mxCell id="Hs6Z9RxVhv4b60qR8Emr-91" value="1" style="text;html=1;align=center;verticalAlign=middle;resizable=0;points=[];autosize=1;strokeColor=none;fillColor=none;fontFamily=Helvetica;fontSize=11;fontColor=default;labelBackgroundColor=default;" parent="1" vertex="1">
          <mxGeometry x="540" y="410" width="30" height="30" as="geometry" />
        </mxCell>
        <mxCell id="Hs6Z9RxVhv4b60qR8Emr-92" value="N" style="text;html=1;align=center;verticalAlign=middle;resizable=0;points=[];autosize=1;strokeColor=none;fillColor=none;fontFamily=Helvetica;fontSize=11;fontColor=default;labelBackgroundColor=default;" parent="1" vertex="1">
          <mxGeometry x="96" y="128" width="30" height="30" as="geometry" />
        </mxCell>
        <mxCell id="Hs6Z9RxVhv4b60qR8Emr-93" value="&lt;div&gt;Pits&lt;/div&gt;" style="whiteSpace=wrap;html=1;fontFamily=Helvetica;fontSize=11;labelBackgroundColor=none;fillColor=#e1d5e7;strokeColor=#9673a6;" parent="1" vertex="1">
          <mxGeometry x="950" y="220" width="120" height="60" as="geometry" />
        </mxCell>
        <mxCell id="Hs6Z9RxVhv4b60qR8Emr-97" value="" style="edgeStyle=orthogonalEdgeStyle;rounded=0;orthogonalLoop=1;jettySize=auto;html=1;strokeColor=default;align=center;verticalAlign=middle;fontFamily=Helvetica;fontSize=11;fontColor=default;labelBackgroundColor=default;endArrow=none;endFill=0;entryX=1;entryY=0.75;entryDx=0;entryDy=0;" parent="1" source="Hs6Z9RxVhv4b60qR8Emr-95" target="Hs6Z9RxVhv4b60qR8Emr-24" edge="1">
          <mxGeometry relative="1" as="geometry">
            <mxPoint x="780" y="140" as="targetPoint" />
          </mxGeometry>
        </mxCell>
        <mxCell id="Hs6Z9RxVhv4b60qR8Emr-98" value="" style="edgeStyle=orthogonalEdgeStyle;rounded=0;orthogonalLoop=1;jettySize=auto;html=1;strokeColor=default;align=center;verticalAlign=middle;fontFamily=Helvetica;fontSize=11;fontColor=default;labelBackgroundColor=default;endArrow=none;endFill=0;" parent="1" source="Hs6Z9RxVhv4b60qR8Emr-95" target="Hs6Z9RxVhv4b60qR8Emr-93" edge="1">
          <mxGeometry relative="1" as="geometry" />
        </mxCell>
        <mxCell id="Hs6Z9RxVhv4b60qR8Emr-100" value="" style="edgeStyle=orthogonalEdgeStyle;rounded=0;orthogonalLoop=1;jettySize=auto;html=1;strokeColor=default;align=center;verticalAlign=middle;fontFamily=Helvetica;fontSize=11;fontColor=default;labelBackgroundColor=default;endArrow=none;endFill=0;entryX=0.892;entryY=0.017;entryDx=0;entryDy=0;entryPerimeter=0;exitX=0;exitY=0.75;exitDx=0;exitDy=0;" parent="1" source="Hs6Z9RxVhv4b60qR8Emr-95" target="Hs6Z9RxVhv4b60qR8Emr-61" edge="1">
          <mxGeometry relative="1" as="geometry">
            <mxPoint x="780" y="360" as="targetPoint" />
            <Array as="points">
              <mxPoint x="700" y="265" />
              <mxPoint x="700" y="330" />
              <mxPoint x="647" y="330" />
            </Array>
            <mxPoint x="800" y="300" as="sourcePoint" />
          </mxGeometry>
        </mxCell>
        <mxCell id="Hs6Z9RxVhv4b60qR8Emr-95" value="In" style="shape=associativeEntity;whiteSpace=wrap;html=1;align=center;fillColor=#dae8fc;strokeColor=#6c8ebf;labelBackgroundColor=none;" parent="1" vertex="1">
          <mxGeometry x="760" y="220" width="140" height="60" as="geometry" />
        </mxCell>
        <mxCell id="Hs6Z9RxVhv4b60qR8Emr-103" value="N" style="text;html=1;align=center;verticalAlign=middle;resizable=0;points=[];autosize=1;strokeColor=none;fillColor=none;fontFamily=Helvetica;fontSize=11;fontColor=default;labelBackgroundColor=default;" parent="1" vertex="1">
          <mxGeometry x="920" y="248" width="30" height="30" as="geometry" />
        </mxCell>
        <mxCell id="Hs6Z9RxVhv4b60qR8Emr-107" value="N" style="text;html=1;align=center;verticalAlign=middle;resizable=0;points=[];autosize=1;strokeColor=none;fillColor=none;fontFamily=Helvetica;fontSize=11;fontColor=default;labelBackgroundColor=default;" parent="1" vertex="1">
          <mxGeometry x="730" y="218" width="30" height="30" as="geometry" />
        </mxCell>
        <mxCell id="Hs6Z9RxVhv4b60qR8Emr-108" value="1" style="text;html=1;align=center;verticalAlign=middle;resizable=0;points=[];autosize=1;strokeColor=none;fillColor=none;fontFamily=Helvetica;fontSize=11;fontColor=default;labelBackgroundColor=default;" parent="1" vertex="1">
          <mxGeometry x="656" y="136" width="30" height="30" as="geometry" />
        </mxCell>
        <mxCell id="Hs6Z9RxVhv4b60qR8Emr-112" value="M" style="text;html=1;align=center;verticalAlign=middle;resizable=0;points=[];autosize=1;strokeColor=none;fillColor=none;fontFamily=Helvetica;fontSize=11;fontColor=default;labelBackgroundColor=default;" parent="1" vertex="1">
          <mxGeometry x="646" y="330" width="30" height="30" as="geometry" />
        </mxCell>
        <mxCell id="Hs6Z9RxVhv4b60qR8Emr-121" value="" style="edgeStyle=orthogonalEdgeStyle;rounded=0;orthogonalLoop=1;jettySize=auto;html=1;strokeColor=default;align=center;verticalAlign=middle;fontFamily=Helvetica;fontSize=11;fontColor=default;labelBackgroundColor=default;endArrow=none;endFill=0;" parent="1" source="Hs6Z9RxVhv4b60qR8Emr-117" target="Hs6Z9RxVhv4b60qR8Emr-120" edge="1">
          <mxGeometry relative="1" as="geometry" />
        </mxCell>
        <mxCell id="Hs6Z9RxVhv4b60qR8Emr-117" value="In" style="shape=associativeEntity;whiteSpace=wrap;html=1;align=center;fontFamily=Helvetica;fontSize=11;labelBackgroundColor=none;fillColor=#dae8fc;strokeColor=#6c8ebf;" parent="1" vertex="1">
          <mxGeometry x="1320" y="610" width="140" height="60" as="geometry" />
        </mxCell>
        <mxCell id="Hs6Z9RxVhv4b60qR8Emr-120" value="Awards" style="whiteSpace=wrap;html=1;fontSize=11;labelBackgroundColor=none;fillColor=#e1d5e7;strokeColor=#9673a6;" parent="1" vertex="1">
          <mxGeometry x="1330" y="750" width="120" height="60" as="geometry" />
        </mxCell>
        <mxCell id="Hs6Z9RxVhv4b60qR8Emr-122" value="M" style="text;html=1;align=center;verticalAlign=middle;resizable=0;points=[];autosize=1;strokeColor=none;fillColor=none;fontFamily=Helvetica;fontSize=11;fontColor=default;labelBackgroundColor=default;" parent="1" vertex="1">
          <mxGeometry x="1385" y="720" width="30" height="30" as="geometry" />
        </mxCell>
        <mxCell id="Hs6Z9RxVhv4b60qR8Emr-123" value="N" style="text;html=1;align=center;verticalAlign=middle;resizable=0;points=[];autosize=1;strokeColor=none;fillColor=none;fontFamily=Helvetica;fontSize=11;fontColor=default;labelBackgroundColor=default;" parent="1" vertex="1">
          <mxGeometry x="595" y="418" width="30" height="30" as="geometry" />
        </mxCell>
        <mxCell id="Hs6Z9RxVhv4b60qR8Emr-126" value="1" style="text;html=1;align=center;verticalAlign=middle;resizable=0;points=[];autosize=1;strokeColor=none;fillColor=none;fontFamily=Helvetica;fontSize=11;fontColor=default;labelBackgroundColor=default;" parent="1" vertex="1">
          <mxGeometry x="600" y="60" width="30" height="30" as="geometry" />
        </mxCell>
        <mxCell id="Hs6Z9RxVhv4b60qR8Emr-127" value="N" style="text;html=1;align=center;verticalAlign=middle;resizable=0;points=[];autosize=1;strokeColor=none;fillColor=none;fontFamily=Helvetica;fontSize=11;fontColor=default;labelBackgroundColor=default;" parent="1" vertex="1">
          <mxGeometry x="1385" y="580" width="30" height="30" as="geometry" />
        </mxCell>
        <mxCell id="Hs6Z9RxVhv4b60qR8Emr-129" value="&lt;u&gt;id&lt;/u&gt;" style="ellipse;whiteSpace=wrap;html=1;align=center;fontFamily=Helvetica;fontSize=11;labelBackgroundColor=none;fillColor=#e1d5e7;strokeColor=#9673a6;" parent="1" vertex="1">
          <mxGeometry x="-150" y="-230" width="100" height="40" as="geometry" />
        </mxCell>
        <mxCell id="Hs6Z9RxVhv4b60qR8Emr-133" value="" style="endArrow=none;html=1;rounded=0;strokeColor=default;align=center;verticalAlign=middle;fontFamily=Helvetica;fontSize=11;fontColor=default;labelBackgroundColor=default;entryX=0.5;entryY=1;entryDx=0;entryDy=0;" parent="1" source="Hs6Z9RxVhv4b60qR8Emr-20" target="Hs6Z9RxVhv4b60qR8Emr-129" edge="1">
          <mxGeometry width="50" height="50" relative="1" as="geometry">
            <mxPoint x="280" y="20" as="sourcePoint" />
            <mxPoint x="330" y="-30" as="targetPoint" />
          </mxGeometry>
        </mxCell>
        <mxCell id="pNn8hwGSQoI09kQlvMrT-3" value="" style="edgeStyle=none;rounded=0;orthogonalLoop=1;jettySize=auto;html=1;strokeColor=default;align=center;verticalAlign=middle;fontFamily=Helvetica;fontSize=11;fontColor=default;labelBackgroundColor=default;endArrow=none;" parent="1" source="pNn8hwGSQoI09kQlvMrT-2" target="Hs6Z9RxVhv4b60qR8Emr-20" edge="1">
          <mxGeometry relative="1" as="geometry" />
        </mxCell>
        <mxCell id="pNn8hwGSQoI09kQlvMrT-2" value="type" style="ellipse;whiteSpace=wrap;html=1;align=center;fontFamily=Helvetica;fontSize=11;labelBackgroundColor=none;fillColor=#e1d5e7;strokeColor=#9673a6;" parent="1" vertex="1">
          <mxGeometry x="-170" y="-179" width="100" height="40" as="geometry" />
        </mxCell>
        <mxCell id="pNn8hwGSQoI09kQlvMrT-5" value="" style="edgeStyle=none;rounded=0;orthogonalLoop=1;jettySize=auto;html=1;strokeColor=default;align=center;verticalAlign=middle;fontFamily=Helvetica;fontSize=11;fontColor=default;labelBackgroundColor=default;endArrow=none;" parent="1" source="pNn8hwGSQoI09kQlvMrT-4" target="Hs6Z9RxVhv4b60qR8Emr-10" edge="1">
          <mxGeometry relative="1" as="geometry" />
        </mxCell>
        <mxCell id="pNn8hwGSQoI09kQlvMrT-4" value="&lt;u&gt;id&lt;/u&gt;" style="ellipse;whiteSpace=wrap;html=1;align=center;fontFamily=Helvetica;fontSize=11;labelBackgroundColor=none;fillColor=#e1d5e7;strokeColor=#9673a6;" parent="1" vertex="1">
          <mxGeometry x="-130" y="-20" width="100" height="40" as="geometry" />
        </mxCell>
        <mxCell id="pNn8hwGSQoI09kQlvMrT-14" value="" style="edgeStyle=none;rounded=0;orthogonalLoop=1;jettySize=auto;html=1;strokeColor=default;align=center;verticalAlign=middle;fontFamily=Helvetica;fontSize=11;fontColor=default;labelBackgroundColor=default;endArrow=none;" parent="1" source="pNn8hwGSQoI09kQlvMrT-6" target="Hs6Z9RxVhv4b60qR8Emr-10" edge="1">
          <mxGeometry relative="1" as="geometry" />
        </mxCell>
        <mxCell id="pNn8hwGSQoI09kQlvMrT-6" value="&lt;div&gt;code&lt;/div&gt;" style="ellipse;whiteSpace=wrap;html=1;align=center;fontFamily=Helvetica;fontSize=11;labelBackgroundColor=none;fillColor=#e1d5e7;strokeColor=#9673a6;" parent="1" vertex="1">
          <mxGeometry x="-280" y="91" width="100" height="40" as="geometry" />
        </mxCell>
        <mxCell id="pNn8hwGSQoI09kQlvMrT-15" value="" style="edgeStyle=none;rounded=0;orthogonalLoop=1;jettySize=auto;html=1;strokeColor=default;align=center;verticalAlign=middle;fontFamily=Helvetica;fontSize=11;fontColor=default;labelBackgroundColor=default;endArrow=none;" parent="1" source="pNn8hwGSQoI09kQlvMrT-7" target="Hs6Z9RxVhv4b60qR8Emr-10" edge="1">
          <mxGeometry relative="1" as="geometry" />
        </mxCell>
        <mxCell id="pNn8hwGSQoI09kQlvMrT-7" value="group1_score" style="ellipse;whiteSpace=wrap;html=1;align=center;fontFamily=Helvetica;fontSize=11;labelBackgroundColor=none;fillColor=#e1d5e7;strokeColor=#9673a6;" parent="1" vertex="1">
          <mxGeometry x="-250" y="138" width="100" height="40" as="geometry" />
        </mxCell>
        <mxCell id="pNn8hwGSQoI09kQlvMrT-8" value="&lt;div&gt;group2_score&lt;/div&gt;" style="ellipse;whiteSpace=wrap;html=1;align=center;fontFamily=Helvetica;fontSize=11;labelBackgroundColor=none;fillColor=#e1d5e7;strokeColor=#9673a6;" parent="1" vertex="1">
          <mxGeometry x="-220" y="178" width="100" height="40" as="geometry" />
        </mxCell>
        <mxCell id="pNn8hwGSQoI09kQlvMrT-9" value="who_won" style="ellipse;whiteSpace=wrap;html=1;align=center;fontFamily=Helvetica;fontSize=11;labelBackgroundColor=none;fillColor=#e1d5e7;strokeColor=#9673a6;" parent="1" vertex="1">
          <mxGeometry x="-160" y="213" width="100" height="40" as="geometry" />
        </mxCell>
        <mxCell id="pNn8hwGSQoI09kQlvMrT-21" value="" style="edgeStyle=none;rounded=0;orthogonalLoop=1;jettySize=auto;html=1;strokeColor=default;align=center;verticalAlign=middle;fontFamily=Helvetica;fontSize=11;fontColor=default;labelBackgroundColor=default;endArrow=none;" parent="1" source="pNn8hwGSQoI09kQlvMrT-10" target="Hs6Z9RxVhv4b60qR8Emr-10" edge="1">
          <mxGeometry relative="1" as="geometry" />
        </mxCell>
        <mxCell id="pNn8hwGSQoI09kQlvMrT-10" value="number" style="ellipse;whiteSpace=wrap;html=1;align=center;fontFamily=Helvetica;fontSize=11;labelBackgroundColor=none;fillColor=#e1d5e7;strokeColor=#9673a6;" parent="1" vertex="1">
          <mxGeometry x="-80" y="248" width="100" height="40" as="geometry" />
        </mxCell>
        <mxCell id="pNn8hwGSQoI09kQlvMrT-22" value="" style="edgeStyle=none;rounded=0;orthogonalLoop=1;jettySize=auto;html=1;strokeColor=default;align=center;verticalAlign=middle;fontFamily=Helvetica;fontSize=11;fontColor=default;labelBackgroundColor=default;endArrow=none;" parent="1" source="pNn8hwGSQoI09kQlvMrT-11" target="Hs6Z9RxVhv4b60qR8Emr-10" edge="1">
          <mxGeometry relative="1" as="geometry" />
        </mxCell>
        <mxCell id="pNn8hwGSQoI09kQlvMrT-11" value="start_time" style="ellipse;whiteSpace=wrap;html=1;align=center;fontFamily=Helvetica;fontSize=11;labelBackgroundColor=none;fillColor=#e1d5e7;strokeColor=#9673a6;" parent="1" vertex="1">
          <mxGeometry x="70" y="180" width="100" height="40" as="geometry" />
        </mxCell>
        <mxCell id="pNn8hwGSQoI09kQlvMrT-23" value="" style="edgeStyle=none;rounded=0;orthogonalLoop=1;jettySize=auto;html=1;strokeColor=default;align=center;verticalAlign=middle;fontFamily=Helvetica;fontSize=11;fontColor=default;labelBackgroundColor=default;endArrow=none;" parent="1" source="pNn8hwGSQoI09kQlvMrT-12" target="Hs6Z9RxVhv4b60qR8Emr-10" edge="1">
          <mxGeometry relative="1" as="geometry" />
        </mxCell>
        <mxCell id="pNn8hwGSQoI09kQlvMrT-12" value="end_time" style="ellipse;whiteSpace=wrap;html=1;align=center;fontFamily=Helvetica;fontSize=11;labelBackgroundColor=none;fillColor=#e1d5e7;strokeColor=#9673a6;" parent="1" vertex="1">
          <mxGeometry x="10" y="220" width="100" height="40" as="geometry" />
        </mxCell>
        <mxCell id="pNn8hwGSQoI09kQlvMrT-19" value="" style="edgeStyle=none;rounded=0;orthogonalLoop=1;jettySize=auto;html=1;strokeColor=default;align=center;verticalAlign=middle;fontFamily=Helvetica;fontSize=11;fontColor=default;labelBackgroundColor=default;endArrow=none;exitX=0.93;exitY=0.325;exitDx=0;exitDy=0;exitPerimeter=0;entryX=0;entryY=1;entryDx=0;entryDy=0;" parent="1" source="pNn8hwGSQoI09kQlvMrT-8" target="Hs6Z9RxVhv4b60qR8Emr-10" edge="1">
          <mxGeometry relative="1" as="geometry">
            <mxPoint x="-110" y="166" as="sourcePoint" />
            <mxPoint x="-20" y="138" as="targetPoint" />
          </mxGeometry>
        </mxCell>
        <mxCell id="pNn8hwGSQoI09kQlvMrT-20" value="" style="edgeStyle=none;rounded=0;orthogonalLoop=1;jettySize=auto;html=1;strokeColor=default;align=center;verticalAlign=middle;fontFamily=Helvetica;fontSize=11;fontColor=default;labelBackgroundColor=default;endArrow=none;" parent="1" source="pNn8hwGSQoI09kQlvMrT-9" target="Hs6Z9RxVhv4b60qR8Emr-10" edge="1">
          <mxGeometry relative="1" as="geometry">
            <mxPoint x="-100" y="176" as="sourcePoint" />
            <mxPoint x="-10" y="148" as="targetPoint" />
          </mxGeometry>
        </mxCell>
        <mxCell id="pNn8hwGSQoI09kQlvMrT-24" value="N" style="text;html=1;align=center;verticalAlign=middle;resizable=0;points=[];autosize=1;strokeColor=none;fillColor=none;fontFamily=Helvetica;fontSize=11;fontColor=default;labelBackgroundColor=default;" parent="1" vertex="1">
          <mxGeometry x="386" y="-42" width="30" height="30" as="geometry" />
        </mxCell>
        <mxCell id="pNn8hwGSQoI09kQlvMrT-28" value="" style="edgeStyle=none;rounded=0;orthogonalLoop=1;jettySize=auto;html=1;strokeColor=default;align=center;verticalAlign=middle;fontFamily=Helvetica;fontSize=11;fontColor=default;labelBackgroundColor=default;endArrow=none;" parent="1" source="pNn8hwGSQoI09kQlvMrT-27" target="Hs6Z9RxVhv4b60qR8Emr-33" edge="1">
          <mxGeometry relative="1" as="geometry" />
        </mxCell>
        <mxCell id="pNn8hwGSQoI09kQlvMrT-27" value="&lt;u&gt;id&lt;/u&gt;" style="ellipse;whiteSpace=wrap;html=1;align=center;fontFamily=Helvetica;fontSize=11;labelBackgroundColor=none;fillColor=#e1d5e7;strokeColor=#9673a6;" parent="1" vertex="1">
          <mxGeometry x="200" y="-220" width="100" height="40" as="geometry" />
        </mxCell>
        <mxCell id="pNn8hwGSQoI09kQlvMrT-30" value="" style="edgeStyle=none;rounded=0;orthogonalLoop=1;jettySize=auto;html=1;strokeColor=default;align=center;verticalAlign=middle;fontFamily=Helvetica;fontSize=11;fontColor=default;labelBackgroundColor=default;endArrow=none;" parent="1" source="pNn8hwGSQoI09kQlvMrT-29" target="Hs6Z9RxVhv4b60qR8Emr-33" edge="1">
          <mxGeometry relative="1" as="geometry" />
        </mxCell>
        <mxCell id="pNn8hwGSQoI09kQlvMrT-29" value="name" style="ellipse;whiteSpace=wrap;html=1;align=center;fontFamily=Helvetica;fontSize=11;labelBackgroundColor=none;fillColor=#e1d5e7;strokeColor=#9673a6;" parent="1" vertex="1">
          <mxGeometry x="190" y="-170" width="100" height="40" as="geometry" />
        </mxCell>
        <mxCell id="pNn8hwGSQoI09kQlvMrT-32" value="&lt;u&gt;id&lt;/u&gt;" style="ellipse;whiteSpace=wrap;html=1;align=center;fontFamily=Helvetica;fontSize=11;labelBackgroundColor=none;fillColor=#dae8fc;strokeColor=#6c8ebf;" parent="1" vertex="1">
          <mxGeometry x="190" y="-60" width="100" height="40" as="geometry" />
        </mxCell>
        <mxCell id="pNn8hwGSQoI09kQlvMrT-42" value="" style="edgeStyle=none;rounded=0;orthogonalLoop=1;jettySize=auto;html=1;strokeColor=default;align=center;verticalAlign=middle;fontFamily=Helvetica;fontSize=11;fontColor=default;labelBackgroundColor=default;endArrow=none;" parent="1" source="pNn8hwGSQoI09kQlvMrT-40" target="Hs6Z9RxVhv4b60qR8Emr-22" edge="1">
          <mxGeometry relative="1" as="geometry" />
        </mxCell>
        <mxCell id="pNn8hwGSQoI09kQlvMrT-40" value="did_win" style="ellipse;whiteSpace=wrap;html=1;align=center;fontFamily=Helvetica;fontSize=11;labelBackgroundColor=none;fillColor=#dae8fc;strokeColor=#6c8ebf;" parent="1" vertex="1">
          <mxGeometry x="190" y="-12" width="100" height="40" as="geometry" />
        </mxCell>
        <mxCell id="pNn8hwGSQoI09kQlvMrT-48" value="" style="edgeStyle=none;rounded=0;orthogonalLoop=1;jettySize=auto;html=1;strokeColor=default;align=center;verticalAlign=middle;fontFamily=Helvetica;fontSize=11;fontColor=default;labelBackgroundColor=default;endArrow=none;" parent="1" source="pNn8hwGSQoI09kQlvMrT-43" target="Hs6Z9RxVhv4b60qR8Emr-120" edge="1">
          <mxGeometry relative="1" as="geometry" />
        </mxCell>
        <mxCell id="pNn8hwGSQoI09kQlvMrT-43" value="&lt;u&gt;id&lt;/u&gt;" style="ellipse;whiteSpace=wrap;html=1;align=center;fontFamily=Helvetica;fontSize=11;labelBackgroundColor=none;fillColor=#e1d5e7;strokeColor=#9673a6;" parent="1" vertex="1">
          <mxGeometry x="1470" y="780" width="100" height="40" as="geometry" />
        </mxCell>
        <mxCell id="pNn8hwGSQoI09kQlvMrT-50" value="" style="edgeStyle=none;rounded=0;orthogonalLoop=1;jettySize=auto;html=1;strokeColor=default;align=center;verticalAlign=middle;fontFamily=Helvetica;fontSize=11;fontColor=default;labelBackgroundColor=default;endArrow=none;" parent="1" source="pNn8hwGSQoI09kQlvMrT-49" target="Hs6Z9RxVhv4b60qR8Emr-120" edge="1">
          <mxGeometry relative="1" as="geometry" />
        </mxCell>
        <mxCell id="pNn8hwGSQoI09kQlvMrT-49" value="name" style="ellipse;whiteSpace=wrap;html=1;align=center;fontFamily=Helvetica;fontSize=11;labelBackgroundColor=none;fillColor=#e1d5e7;strokeColor=#9673a6;" parent="1" vertex="1">
          <mxGeometry x="1470" y="840" width="100" height="40" as="geometry" />
        </mxCell>
        <mxCell id="pNn8hwGSQoI09kQlvMrT-56" value="" style="edgeStyle=none;rounded=0;orthogonalLoop=1;jettySize=auto;html=1;strokeColor=default;align=center;verticalAlign=middle;fontFamily=Helvetica;fontSize=11;fontColor=default;labelBackgroundColor=default;endArrow=none;entryX=0.017;entryY=0.4;entryDx=0;entryDy=0;entryPerimeter=0;" parent="1" source="pNn8hwGSQoI09kQlvMrT-51" target="Hs6Z9RxVhv4b60qR8Emr-35" edge="1">
          <mxGeometry relative="1" as="geometry" />
        </mxCell>
        <mxCell id="pNn8hwGSQoI09kQlvMrT-51" value="&lt;u&gt;id&lt;/u&gt;" style="ellipse;whiteSpace=wrap;html=1;align=center;fontFamily=Helvetica;fontSize=11;labelBackgroundColor=none;fillColor=#e1d5e7;strokeColor=#9673a6;" parent="1" vertex="1">
          <mxGeometry x="910" y="310" width="100" height="40" as="geometry" />
        </mxCell>
        <mxCell id="pNn8hwGSQoI09kQlvMrT-68" value="" style="edgeStyle=none;rounded=0;orthogonalLoop=1;jettySize=auto;html=1;strokeColor=default;align=center;verticalAlign=middle;fontFamily=Helvetica;fontSize=11;fontColor=default;labelBackgroundColor=default;endArrow=none;" parent="1" source="pNn8hwGSQoI09kQlvMrT-58" target="Hs6Z9RxVhv4b60qR8Emr-36" edge="1">
          <mxGeometry relative="1" as="geometry" />
        </mxCell>
        <mxCell id="pNn8hwGSQoI09kQlvMrT-58" value="&lt;u&gt;id&lt;/u&gt;" style="ellipse;whiteSpace=wrap;html=1;align=center;fontFamily=Helvetica;fontSize=11;labelBackgroundColor=none;fillColor=#e1d5e7;strokeColor=#9673a6;" parent="1" vertex="1">
          <mxGeometry x="930" y="448" width="100" height="40" as="geometry" />
        </mxCell>
        <mxCell id="pNn8hwGSQoI09kQlvMrT-65" value="" style="edgeStyle=none;rounded=0;orthogonalLoop=1;jettySize=auto;html=1;strokeColor=default;align=center;verticalAlign=middle;fontFamily=Helvetica;fontSize=11;fontColor=default;labelBackgroundColor=default;endArrow=none;" parent="1" source="pNn8hwGSQoI09kQlvMrT-59" target="Hs6Z9RxVhv4b60qR8Emr-37" edge="1">
          <mxGeometry relative="1" as="geometry" />
        </mxCell>
        <mxCell id="pNn8hwGSQoI09kQlvMrT-59" value="&lt;u&gt;id&lt;/u&gt;" style="ellipse;whiteSpace=wrap;html=1;align=center;fontFamily=Helvetica;fontSize=11;labelBackgroundColor=none;fillColor=#e1d5e7;strokeColor=#9673a6;" parent="1" vertex="1">
          <mxGeometry x="1141" y="575" width="100" height="40" as="geometry" />
        </mxCell>
        <mxCell id="pNn8hwGSQoI09kQlvMrT-62" value="" style="edgeStyle=none;rounded=0;orthogonalLoop=1;jettySize=auto;html=1;strokeColor=default;align=center;verticalAlign=middle;fontFamily=Helvetica;fontSize=11;fontColor=default;labelBackgroundColor=default;endArrow=none;" parent="1" source="pNn8hwGSQoI09kQlvMrT-60" target="Hs6Z9RxVhv4b60qR8Emr-37" edge="1">
          <mxGeometry relative="1" as="geometry" />
        </mxCell>
        <mxCell id="pNn8hwGSQoI09kQlvMrT-60" value="code" style="ellipse;whiteSpace=wrap;html=1;align=center;fontFamily=Helvetica;fontSize=11;labelBackgroundColor=none;fillColor=#e1d5e7;strokeColor=#9673a6;" parent="1" vertex="1">
          <mxGeometry x="1250" y="560" width="100" height="40" as="geometry" />
        </mxCell>
        <mxCell id="pNn8hwGSQoI09kQlvMrT-73" value="" style="edgeStyle=none;rounded=0;orthogonalLoop=1;jettySize=auto;html=1;strokeColor=default;align=center;verticalAlign=middle;fontFamily=Helvetica;fontSize=11;fontColor=default;labelBackgroundColor=default;endArrow=none;" parent="1" source="pNn8hwGSQoI09kQlvMrT-70" target="Hs6Z9RxVhv4b60qR8Emr-37" edge="1">
          <mxGeometry relative="1" as="geometry" />
        </mxCell>
        <mxCell id="pNn8hwGSQoI09kQlvMrT-70" value="name" style="ellipse;whiteSpace=wrap;html=1;align=center;fontFamily=Helvetica;fontSize=11;labelBackgroundColor=none;fillColor=#e1d5e7;strokeColor=#9673a6;" parent="1" vertex="1">
          <mxGeometry x="1275" y="508" width="100" height="40" as="geometry" />
        </mxCell>
        <mxCell id="pNn8hwGSQoI09kQlvMrT-79" value="" style="edgeStyle=none;rounded=0;orthogonalLoop=1;jettySize=auto;html=1;strokeColor=default;align=center;verticalAlign=middle;fontFamily=Helvetica;fontSize=11;fontColor=default;labelBackgroundColor=default;endArrow=none;" parent="1" source="pNn8hwGSQoI09kQlvMrT-74" target="Hs6Z9RxVhv4b60qR8Emr-36" edge="1">
          <mxGeometry relative="1" as="geometry" />
        </mxCell>
        <mxCell id="pNn8hwGSQoI09kQlvMrT-74" value="name" style="ellipse;whiteSpace=wrap;html=1;align=center;fontFamily=Helvetica;fontSize=11;labelBackgroundColor=none;fillColor=#e1d5e7;strokeColor=#9673a6;" parent="1" vertex="1">
          <mxGeometry x="1020" y="548" width="100" height="40" as="geometry" />
        </mxCell>
        <mxCell id="pNn8hwGSQoI09kQlvMrT-78" value="" style="edgeStyle=none;rounded=0;orthogonalLoop=1;jettySize=auto;html=1;strokeColor=default;align=center;verticalAlign=middle;fontFamily=Helvetica;fontSize=11;fontColor=default;labelBackgroundColor=default;endArrow=none;" parent="1" source="pNn8hwGSQoI09kQlvMrT-75" target="Hs6Z9RxVhv4b60qR8Emr-36" edge="1">
          <mxGeometry relative="1" as="geometry" />
        </mxCell>
        <mxCell id="pNn8hwGSQoI09kQlvMrT-75" value="code" style="ellipse;whiteSpace=wrap;html=1;align=center;fontFamily=Helvetica;fontSize=11;labelBackgroundColor=none;fillColor=#e1d5e7;strokeColor=#9673a6;" parent="1" vertex="1">
          <mxGeometry x="920" y="535" width="100" height="40" as="geometry" />
        </mxCell>
        <mxCell id="pNn8hwGSQoI09kQlvMrT-84" value="" style="edgeStyle=none;rounded=0;orthogonalLoop=1;jettySize=auto;html=1;strokeColor=default;align=center;verticalAlign=middle;fontFamily=Helvetica;fontSize=11;fontColor=default;labelBackgroundColor=default;endArrow=none;entryX=0.25;entryY=1;entryDx=0;entryDy=0;" parent="1" source="pNn8hwGSQoI09kQlvMrT-80" target="Hs6Z9RxVhv4b60qR8Emr-35" edge="1">
          <mxGeometry relative="1" as="geometry" />
        </mxCell>
        <mxCell id="pNn8hwGSQoI09kQlvMrT-80" value="name" style="ellipse;whiteSpace=wrap;html=1;align=center;fontFamily=Helvetica;fontSize=11;labelBackgroundColor=none;fillColor=#e1d5e7;strokeColor=#9673a6;" parent="1" vertex="1">
          <mxGeometry x="1020" y="395" width="100" height="40" as="geometry" />
        </mxCell>
        <mxCell id="pNn8hwGSQoI09kQlvMrT-83" value="" style="edgeStyle=none;rounded=0;orthogonalLoop=1;jettySize=auto;html=1;strokeColor=default;align=center;verticalAlign=middle;fontFamily=Helvetica;fontSize=11;fontColor=default;labelBackgroundColor=default;endArrow=none;entryX=0;entryY=0.75;entryDx=0;entryDy=0;" parent="1" source="pNn8hwGSQoI09kQlvMrT-81" target="Hs6Z9RxVhv4b60qR8Emr-35" edge="1">
          <mxGeometry relative="1" as="geometry">
            <mxPoint x="1140" y="370" as="targetPoint" />
          </mxGeometry>
        </mxCell>
        <mxCell id="pNn8hwGSQoI09kQlvMrT-81" value="code" style="ellipse;whiteSpace=wrap;html=1;align=center;fontFamily=Helvetica;fontSize=11;labelBackgroundColor=none;fillColor=#e1d5e7;strokeColor=#9673a6;" parent="1" vertex="1">
          <mxGeometry x="910" y="395" width="100" height="40" as="geometry" />
        </mxCell>
        <mxCell id="pNn8hwGSQoI09kQlvMrT-85" style="edgeStyle=none;rounded=0;orthogonalLoop=1;jettySize=auto;html=1;exitX=0.5;exitY=0;exitDx=0;exitDy=0;entryX=0.42;entryY=0.05;entryDx=0;entryDy=0;entryPerimeter=0;strokeColor=default;align=center;verticalAlign=middle;fontFamily=Helvetica;fontSize=11;fontColor=default;labelBackgroundColor=default;endArrow=none;" parent="1" source="pNn8hwGSQoI09kQlvMrT-75" target="pNn8hwGSQoI09kQlvMrT-75" edge="1">
          <mxGeometry relative="1" as="geometry" />
        </mxCell>
        <mxCell id="pNn8hwGSQoI09kQlvMrT-86" style="edgeStyle=none;rounded=0;orthogonalLoop=1;jettySize=auto;html=1;exitX=0.5;exitY=1;exitDx=0;exitDy=0;strokeColor=default;align=center;verticalAlign=middle;fontFamily=Helvetica;fontSize=11;fontColor=default;labelBackgroundColor=default;endArrow=none;" parent="1" source="pNn8hwGSQoI09kQlvMrT-81" target="pNn8hwGSQoI09kQlvMrT-81" edge="1">
          <mxGeometry relative="1" as="geometry" />
        </mxCell>
        <mxCell id="pNn8hwGSQoI09kQlvMrT-87" style="edgeStyle=none;rounded=0;orthogonalLoop=1;jettySize=auto;html=1;exitX=0.5;exitY=1;exitDx=0;exitDy=0;strokeColor=default;align=center;verticalAlign=middle;fontFamily=Helvetica;fontSize=11;fontColor=default;labelBackgroundColor=default;endArrow=none;" parent="1" source="pNn8hwGSQoI09kQlvMrT-60" target="pNn8hwGSQoI09kQlvMrT-60" edge="1">
          <mxGeometry relative="1" as="geometry" />
        </mxCell>
        <mxCell id="pNn8hwGSQoI09kQlvMrT-92" value="" style="edgeStyle=none;rounded=0;orthogonalLoop=1;jettySize=auto;html=1;strokeColor=default;align=center;verticalAlign=middle;fontFamily=Helvetica;fontSize=11;fontColor=default;labelBackgroundColor=default;endArrow=none;" parent="1" source="pNn8hwGSQoI09kQlvMrT-88" target="Hs6Z9RxVhv4b60qR8Emr-93" edge="1">
          <mxGeometry relative="1" as="geometry" />
        </mxCell>
        <mxCell id="pNn8hwGSQoI09kQlvMrT-88" value="&lt;u&gt;id&lt;/u&gt;" style="ellipse;whiteSpace=wrap;html=1;align=center;fontFamily=Helvetica;fontSize=11;labelBackgroundColor=none;fillColor=#e1d5e7;strokeColor=#9673a6;" parent="1" vertex="1">
          <mxGeometry x="1080" y="140" width="100" height="40" as="geometry" />
        </mxCell>
        <mxCell id="pNn8hwGSQoI09kQlvMrT-91" value="" style="edgeStyle=none;rounded=0;orthogonalLoop=1;jettySize=auto;html=1;strokeColor=default;align=center;verticalAlign=middle;fontFamily=Helvetica;fontSize=11;fontColor=default;labelBackgroundColor=default;endArrow=none;" parent="1" source="pNn8hwGSQoI09kQlvMrT-89" target="Hs6Z9RxVhv4b60qR8Emr-93" edge="1">
          <mxGeometry relative="1" as="geometry" />
        </mxCell>
        <mxCell id="pNn8hwGSQoI09kQlvMrT-89" value="img" style="ellipse;whiteSpace=wrap;html=1;align=center;fontFamily=Helvetica;fontSize=11;labelBackgroundColor=none;fillColor=#e1d5e7;strokeColor=#9673a6;" parent="1" vertex="1">
          <mxGeometry x="1090" y="188" width="100" height="40" as="geometry" />
        </mxCell>
        <mxCell id="pNn8hwGSQoI09kQlvMrT-108" value="" style="edgeStyle=none;rounded=0;orthogonalLoop=1;jettySize=auto;html=1;strokeColor=default;align=center;verticalAlign=middle;fontFamily=Helvetica;fontSize=11;fontColor=default;labelBackgroundColor=default;endArrow=none;" parent="1" source="pNn8hwGSQoI09kQlvMrT-100" target="Hs6Z9RxVhv4b60qR8Emr-24" edge="1">
          <mxGeometry relative="1" as="geometry" />
        </mxCell>
        <mxCell id="pNn8hwGSQoI09kQlvMrT-100" value="nickname" style="ellipse;whiteSpace=wrap;html=1;align=center;fontFamily=Helvetica;fontSize=11;labelBackgroundColor=none;fillColor=#e1d5e7;strokeColor=#9673a6;" parent="1" vertex="1">
          <mxGeometry x="780" y="-40" width="100" height="40" as="geometry" />
        </mxCell>
        <mxCell id="pNn8hwGSQoI09kQlvMrT-111" value="" style="edgeStyle=none;rounded=0;orthogonalLoop=1;jettySize=auto;html=1;strokeColor=default;align=center;verticalAlign=middle;fontFamily=Helvetica;fontSize=11;fontColor=default;labelBackgroundColor=default;endArrow=none;entryX=0.5;entryY=0;entryDx=0;entryDy=0;" parent="1" source="pNn8hwGSQoI09kQlvMrT-113" target="Hs6Z9RxVhv4b60qR8Emr-24" edge="1">
          <mxGeometry relative="1" as="geometry">
            <mxPoint x="627" y="100" as="targetPoint" />
          </mxGeometry>
        </mxCell>
        <mxCell id="pNn8hwGSQoI09kQlvMrT-113" value="address" style="ellipse;whiteSpace=wrap;html=1;align=center;fontFamily=Helvetica;fontSize=11;labelBackgroundColor=none;fillColor=#e1d5e7;strokeColor=#9673a6;" parent="1" vertex="1">
          <mxGeometry x="640" y="-110" width="100" height="40" as="geometry" />
        </mxCell>
        <mxCell id="pNn8hwGSQoI09kQlvMrT-114" value="" style="edgeStyle=none;rounded=0;orthogonalLoop=1;jettySize=auto;html=1;strokeColor=default;align=center;verticalAlign=middle;fontFamily=Helvetica;fontSize=11;fontColor=default;labelBackgroundColor=default;endArrow=none;entryX=1.033;entryY=1.1;entryDx=0;entryDy=0;entryPerimeter=0;" parent="1" source="pNn8hwGSQoI09kQlvMrT-115" target="Hs6Z9RxVhv4b60qR8Emr-126" edge="1">
          <mxGeometry relative="1" as="geometry">
            <mxPoint x="632" y="28" as="targetPoint" />
          </mxGeometry>
        </mxCell>
        <mxCell id="pNn8hwGSQoI09kQlvMrT-115" value="name" style="ellipse;whiteSpace=wrap;html=1;align=center;fontFamily=Helvetica;fontSize=11;labelBackgroundColor=none;fillColor=#e1d5e7;strokeColor=#9673a6;" parent="1" vertex="1">
          <mxGeometry x="730" y="-80" width="100" height="40" as="geometry" />
        </mxCell>
        <mxCell id="pNn8hwGSQoI09kQlvMrT-117" value="" style="edgeStyle=none;rounded=0;orthogonalLoop=1;jettySize=auto;html=1;strokeColor=default;align=center;verticalAlign=middle;fontFamily=Helvetica;fontSize=11;fontColor=default;labelBackgroundColor=default;endArrow=none;" parent="1" source="pNn8hwGSQoI09kQlvMrT-118" target="Hs6Z9RxVhv4b60qR8Emr-24" edge="1">
          <mxGeometry relative="1" as="geometry">
            <mxPoint x="652" y="110" as="targetPoint" />
          </mxGeometry>
        </mxCell>
        <mxCell id="pNn8hwGSQoI09kQlvMrT-118" value="rookie year" style="ellipse;whiteSpace=wrap;html=1;align=center;fontFamily=Helvetica;fontSize=11;labelBackgroundColor=none;fillColor=#e1d5e7;strokeColor=#9673a6;" parent="1" vertex="1">
          <mxGeometry x="780" y="10" width="100" height="40" as="geometry" />
        </mxCell>
        <mxCell id="pNn8hwGSQoI09kQlvMrT-119" value="" style="edgeStyle=none;rounded=0;orthogonalLoop=1;jettySize=auto;html=1;strokeColor=default;align=center;verticalAlign=middle;fontFamily=Helvetica;fontSize=11;fontColor=default;labelBackgroundColor=default;endArrow=none;" parent="1" source="pNn8hwGSQoI09kQlvMrT-120" target="Hs6Z9RxVhv4b60qR8Emr-24" edge="1">
          <mxGeometry relative="1" as="geometry">
            <mxPoint x="696" y="178" as="targetPoint" />
          </mxGeometry>
        </mxCell>
        <mxCell id="pNn8hwGSQoI09kQlvMrT-120" value="number" style="ellipse;whiteSpace=wrap;html=1;align=center;fontFamily=Helvetica;fontSize=11;labelBackgroundColor=none;fillColor=#e1d5e7;strokeColor=#9673a6;" parent="1" vertex="1">
          <mxGeometry x="780" y="70" width="100" height="40" as="geometry" />
        </mxCell>
        <mxCell id="pNn8hwGSQoI09kQlvMrT-121" value="" style="edgeStyle=none;rounded=0;orthogonalLoop=1;jettySize=auto;html=1;strokeColor=default;align=center;verticalAlign=middle;fontFamily=Helvetica;fontSize=11;fontColor=default;labelBackgroundColor=default;endArrow=none;entryX=0.417;entryY=0.033;entryDx=0;entryDy=0;entryPerimeter=0;exitX=1;exitY=1;exitDx=0;exitDy=0;" parent="1" source="pNn8hwGSQoI09kQlvMrT-122" target="Hs6Z9RxVhv4b60qR8Emr-24" edge="1">
          <mxGeometry relative="1" as="geometry">
            <mxPoint x="446" y="75" as="targetPoint" />
          </mxGeometry>
        </mxCell>
        <mxCell id="pNn8hwGSQoI09kQlvMrT-122" value="&lt;u&gt;id&lt;/u&gt;" style="ellipse;whiteSpace=wrap;html=1;align=center;fontFamily=Helvetica;fontSize=11;labelBackgroundColor=none;fillColor=#e1d5e7;strokeColor=#9673a6;" parent="1" vertex="1">
          <mxGeometry x="446" y="-60" width="100" height="40" as="geometry" />
        </mxCell>
        <mxCell id="pNn8hwGSQoI09kQlvMrT-123" style="edgeStyle=none;rounded=0;orthogonalLoop=1;jettySize=auto;html=1;exitX=0.5;exitY=1;exitDx=0;exitDy=0;strokeColor=default;align=center;verticalAlign=middle;fontFamily=Helvetica;fontSize=11;fontColor=default;labelBackgroundColor=default;endArrow=none;" parent="1" source="pNn8hwGSQoI09kQlvMrT-118" target="pNn8hwGSQoI09kQlvMrT-118" edge="1">
          <mxGeometry relative="1" as="geometry" />
        </mxCell>
        <mxCell id="pNn8hwGSQoI09kQlvMrT-125" value="" style="edgeStyle=none;rounded=0;orthogonalLoop=1;jettySize=auto;html=1;strokeColor=default;align=center;verticalAlign=middle;fontFamily=Helvetica;fontSize=11;fontColor=default;labelBackgroundColor=default;endArrow=none;entryX=0.417;entryY=0;entryDx=0;entryDy=0;entryPerimeter=0;" parent="1" source="pNn8hwGSQoI09kQlvMrT-126" target="Hs6Z9RxVhv4b60qR8Emr-24" edge="1">
          <mxGeometry relative="1" as="geometry">
            <mxPoint x="609.04" y="150" as="targetPoint" />
          </mxGeometry>
        </mxCell>
        <mxCell id="pNn8hwGSQoI09kQlvMrT-126" value="city id" style="ellipse;whiteSpace=wrap;html=1;align=center;fontFamily=Helvetica;fontSize=11;labelBackgroundColor=none;fillColor=#e1d5e7;strokeColor=#9673a6;" parent="1" vertex="1">
          <mxGeometry x="540" y="-90" width="100" height="40" as="geometry" />
        </mxCell>
        <mxCell id="pNn8hwGSQoI09kQlvMrT-130" value="" style="edgeStyle=none;rounded=0;orthogonalLoop=1;jettySize=auto;html=1;strokeColor=default;align=center;verticalAlign=middle;fontFamily=Helvetica;fontSize=11;fontColor=default;labelBackgroundColor=default;endArrow=none;" parent="1" source="pNn8hwGSQoI09kQlvMrT-128" target="Hs6Z9RxVhv4b60qR8Emr-36" edge="1">
          <mxGeometry relative="1" as="geometry" />
        </mxCell>
        <mxCell id="pNn8hwGSQoI09kQlvMrT-128" value="countries id" style="ellipse;whiteSpace=wrap;html=1;align=center;fontFamily=Helvetica;fontSize=11;labelBackgroundColor=none;fillColor=#e1d5e7;strokeColor=#9673a6;" parent="1" vertex="1">
          <mxGeometry x="920" y="490" width="100" height="40" as="geometry" />
        </mxCell>
        <mxCell id="pNn8hwGSQoI09kQlvMrT-133" value="" style="edgeStyle=none;rounded=0;orthogonalLoop=1;jettySize=auto;html=1;strokeColor=default;align=center;verticalAlign=middle;fontFamily=Helvetica;fontSize=11;fontColor=default;labelBackgroundColor=default;endArrow=none;" parent="1" source="pNn8hwGSQoI09kQlvMrT-131" target="Hs6Z9RxVhv4b60qR8Emr-35" edge="1">
          <mxGeometry relative="1" as="geometry" />
        </mxCell>
        <mxCell id="pNn8hwGSQoI09kQlvMrT-131" value="districts id" style="ellipse;whiteSpace=wrap;html=1;align=center;fontFamily=Helvetica;fontSize=11;labelBackgroundColor=none;fillColor=#e1d5e7;strokeColor=#9673a6;" parent="1" vertex="1">
          <mxGeometry x="870" y="350" width="100" height="40" as="geometry" />
        </mxCell>
        <mxCell id="pNn8hwGSQoI09kQlvMrT-141" value="" style="edgeStyle=none;rounded=0;orthogonalLoop=1;jettySize=auto;html=1;strokeColor=default;align=center;verticalAlign=middle;fontFamily=Helvetica;fontSize=11;fontColor=default;labelBackgroundColor=default;endArrow=none;" parent="1" source="pNn8hwGSQoI09kQlvMrT-138" target="Hs6Z9RxVhv4b60qR8Emr-10" edge="1">
          <mxGeometry relative="1" as="geometry" />
        </mxCell>
        <mxCell id="pNn8hwGSQoI09kQlvMrT-138" value="competition id" style="ellipse;whiteSpace=wrap;html=1;align=center;fontFamily=Helvetica;fontSize=11;labelBackgroundColor=none;fillColor=#e1d5e7;strokeColor=#9673a6;" parent="1" vertex="1">
          <mxGeometry x="-290" y="40" width="100" height="40" as="geometry" />
        </mxCell>
        <mxCell id="pNn8hwGSQoI09kQlvMrT-140" value="" style="edgeStyle=none;rounded=0;orthogonalLoop=1;jettySize=auto;html=1;strokeColor=default;align=center;verticalAlign=middle;fontFamily=Helvetica;fontSize=11;fontColor=default;labelBackgroundColor=default;endArrow=none;" parent="1" source="pNn8hwGSQoI09kQlvMrT-139" target="Hs6Z9RxVhv4b60qR8Emr-10" edge="1">
          <mxGeometry relative="1" as="geometry" />
        </mxCell>
        <mxCell id="pNn8hwGSQoI09kQlvMrT-139" value="match type id" style="ellipse;whiteSpace=wrap;html=1;align=center;fontFamily=Helvetica;fontSize=11;labelBackgroundColor=none;fillColor=#e1d5e7;strokeColor=#9673a6;" parent="1" vertex="1">
          <mxGeometry x="-210" y="10" width="100" height="40" as="geometry" />
        </mxCell>
        <mxCell id="pNn8hwGSQoI09kQlvMrT-144" value="" style="edgeStyle=none;rounded=0;orthogonalLoop=1;jettySize=auto;html=1;strokeColor=default;align=center;verticalAlign=middle;fontFamily=Helvetica;fontSize=11;fontColor=default;labelBackgroundColor=default;endArrow=none;" parent="1" source="pNn8hwGSQoI09kQlvMrT-142" target="Hs6Z9RxVhv4b60qR8Emr-72" edge="1">
          <mxGeometry relative="1" as="geometry" />
        </mxCell>
        <mxCell id="pNn8hwGSQoI09kQlvMrT-142" value="competitions id" style="ellipse;whiteSpace=wrap;html=1;align=center;fontFamily=Helvetica;fontSize=11;labelBackgroundColor=none;fillColor=#e1d5e7;strokeColor=#9673a6;" parent="1" vertex="1">
          <mxGeometry x="270" y="488" width="100" height="40" as="geometry" />
        </mxCell>
        <mxCell id="pNn8hwGSQoI09kQlvMrT-146" value="" style="edgeStyle=none;rounded=0;orthogonalLoop=1;jettySize=auto;html=1;strokeColor=default;align=center;verticalAlign=middle;fontFamily=Helvetica;fontSize=11;fontColor=default;labelBackgroundColor=default;endArrow=none;" parent="1" source="pNn8hwGSQoI09kQlvMrT-145" target="Hs6Z9RxVhv4b60qR8Emr-72" edge="1">
          <mxGeometry relative="1" as="geometry" />
        </mxCell>
        <mxCell id="pNn8hwGSQoI09kQlvMrT-145" value="&lt;u&gt;id&lt;/u&gt;" style="ellipse;whiteSpace=wrap;html=1;align=center;fontFamily=Helvetica;fontSize=11;labelBackgroundColor=none;fillColor=#e1d5e7;strokeColor=#9673a6;" parent="1" vertex="1">
          <mxGeometry x="160" y="473" width="100" height="40" as="geometry" />
        </mxCell>
        <mxCell id="pNn8hwGSQoI09kQlvMrT-151" value="" style="edgeStyle=none;rounded=0;orthogonalLoop=1;jettySize=auto;html=1;strokeColor=default;align=center;verticalAlign=middle;fontFamily=Helvetica;fontSize=11;fontColor=default;labelBackgroundColor=default;endArrow=none;" parent="1" source="pNn8hwGSQoI09kQlvMrT-147" target="Hs6Z9RxVhv4b60qR8Emr-79" edge="1">
          <mxGeometry relative="1" as="geometry" />
        </mxCell>
        <mxCell id="pNn8hwGSQoI09kQlvMrT-147" value="&lt;u&gt;teams id&lt;/u&gt;" style="ellipse;whiteSpace=wrap;html=1;align=center;fontFamily=Helvetica;fontSize=11;labelBackgroundColor=none;fillColor=#dae8fc;strokeColor=#6c8ebf;" parent="1" vertex="1">
          <mxGeometry x="180" y="243" width="100" height="40" as="geometry" />
        </mxCell>
        <mxCell id="pNn8hwGSQoI09kQlvMrT-149" value="" style="edgeStyle=none;rounded=0;orthogonalLoop=1;jettySize=auto;html=1;strokeColor=default;align=center;verticalAlign=middle;fontFamily=Helvetica;fontSize=11;fontColor=default;labelBackgroundColor=default;endArrow=none;" parent="1" source="pNn8hwGSQoI09kQlvMrT-148" target="Hs6Z9RxVhv4b60qR8Emr-79" edge="1">
          <mxGeometry relative="1" as="geometry" />
        </mxCell>
        <mxCell id="pNn8hwGSQoI09kQlvMrT-148" value="&lt;u&gt;alliances id&lt;/u&gt;" style="ellipse;whiteSpace=wrap;html=1;align=center;fontFamily=Helvetica;fontSize=11;labelBackgroundColor=none;fillColor=#dae8fc;strokeColor=#6c8ebf;" parent="1" vertex="1">
          <mxGeometry x="210" y="290" width="100" height="40" as="geometry" />
        </mxCell>
        <mxCell id="pNn8hwGSQoI09kQlvMrT-162" value="" style="edgeStyle=none;rounded=0;orthogonalLoop=1;jettySize=auto;html=1;strokeColor=default;align=center;verticalAlign=middle;fontFamily=Helvetica;fontSize=11;fontColor=default;labelBackgroundColor=default;endArrow=none;entryX=1;entryY=1;entryDx=0;entryDy=0;" parent="1" source="pNn8hwGSQoI09kQlvMrT-153" target="Hs6Z9RxVhv4b60qR8Emr-61" edge="1">
          <mxGeometry relative="1" as="geometry" />
        </mxCell>
        <mxCell id="pNn8hwGSQoI09kQlvMrT-153" value="&lt;u&gt;id&lt;/u&gt;" style="ellipse;whiteSpace=wrap;html=1;align=center;fontFamily=Helvetica;fontSize=11;labelBackgroundColor=none;fillColor=#e1d5e7;strokeColor=#9673a6;" parent="1" vertex="1">
          <mxGeometry x="750" y="375" width="100" height="40" as="geometry" />
        </mxCell>
        <mxCell id="pNn8hwGSQoI09kQlvMrT-167" value="" style="edgeStyle=none;rounded=0;orthogonalLoop=1;jettySize=auto;html=1;strokeColor=default;align=center;verticalAlign=middle;fontFamily=Helvetica;fontSize=11;fontColor=default;labelBackgroundColor=default;endArrow=none;exitX=0;exitY=0.5;exitDx=0;exitDy=0;" parent="1" source="pNn8hwGSQoI09kQlvMrT-156" edge="1">
          <mxGeometry relative="1" as="geometry">
            <mxPoint x="660" y="420" as="targetPoint" />
          </mxGeometry>
        </mxCell>
        <mxCell id="pNn8hwGSQoI09kQlvMrT-156" value="cities id" style="ellipse;whiteSpace=wrap;html=1;align=center;fontFamily=Helvetica;fontSize=11;labelBackgroundColor=none;fillColor=#e1d5e7;strokeColor=#9673a6;" parent="1" vertex="1">
          <mxGeometry x="750" y="420" width="100" height="40" as="geometry" />
        </mxCell>
        <mxCell id="pNn8hwGSQoI09kQlvMrT-173" value="" style="edgeStyle=none;rounded=0;orthogonalLoop=1;jettySize=auto;html=1;strokeColor=default;align=center;verticalAlign=middle;fontFamily=Helvetica;fontSize=11;fontColor=default;labelBackgroundColor=default;endArrow=none;entryX=0.833;entryY=1.017;entryDx=0;entryDy=0;entryPerimeter=0;" parent="1" source="pNn8hwGSQoI09kQlvMrT-169" target="Hs6Z9RxVhv4b60qR8Emr-61" edge="1">
          <mxGeometry relative="1" as="geometry">
            <mxPoint x="660" y="430" as="targetPoint" />
          </mxGeometry>
        </mxCell>
        <mxCell id="pNn8hwGSQoI09kQlvMrT-169" value="code" style="ellipse;whiteSpace=wrap;html=1;align=center;fontFamily=Helvetica;fontSize=11;labelBackgroundColor=none;fillColor=#e1d5e7;strokeColor=#9673a6;" parent="1" vertex="1">
          <mxGeometry x="751" y="466" width="100" height="40" as="geometry" />
        </mxCell>
        <mxCell id="pNn8hwGSQoI09kQlvMrT-177" value="" style="edgeStyle=none;rounded=0;orthogonalLoop=1;jettySize=auto;html=1;strokeColor=default;align=center;verticalAlign=middle;fontFamily=Helvetica;fontSize=11;fontColor=default;labelBackgroundColor=default;endArrow=none;entryX=0.383;entryY=1.017;entryDx=0;entryDy=0;entryPerimeter=0;" parent="1" source="pNn8hwGSQoI09kQlvMrT-170" target="Hs6Z9RxVhv4b60qR8Emr-61" edge="1">
          <mxGeometry relative="1" as="geometry" />
        </mxCell>
        <mxCell id="pNn8hwGSQoI09kQlvMrT-170" value="name" style="ellipse;whiteSpace=wrap;html=1;align=center;fontFamily=Helvetica;fontSize=11;labelBackgroundColor=none;fillColor=#e1d5e7;strokeColor=#9673a6;" parent="1" vertex="1">
          <mxGeometry x="516" y="513" width="100" height="40" as="geometry" />
        </mxCell>
        <mxCell id="pNn8hwGSQoI09kQlvMrT-180" value="" style="edgeStyle=none;rounded=0;orthogonalLoop=1;jettySize=auto;html=1;strokeColor=default;align=center;verticalAlign=middle;fontFamily=Helvetica;fontSize=11;fontColor=default;labelBackgroundColor=default;endArrow=none;" parent="1" source="pNn8hwGSQoI09kQlvMrT-171" target="Hs6Z9RxVhv4b60qR8Emr-61" edge="1">
          <mxGeometry relative="1" as="geometry" />
        </mxCell>
        <mxCell id="pNn8hwGSQoI09kQlvMrT-171" value="start date" style="ellipse;whiteSpace=wrap;html=1;align=center;fontFamily=Helvetica;fontSize=11;labelBackgroundColor=none;fillColor=#e1d5e7;strokeColor=#9673a6;" parent="1" vertex="1">
          <mxGeometry x="695" y="506" width="100" height="40" as="geometry" />
        </mxCell>
        <mxCell id="pNn8hwGSQoI09kQlvMrT-179" value="" style="edgeStyle=none;rounded=0;orthogonalLoop=1;jettySize=auto;html=1;strokeColor=default;align=center;verticalAlign=middle;fontFamily=Helvetica;fontSize=11;fontColor=default;labelBackgroundColor=default;endArrow=none;entryX=0.75;entryY=1;entryDx=0;entryDy=0;" parent="1" source="pNn8hwGSQoI09kQlvMrT-178" target="Hs6Z9RxVhv4b60qR8Emr-61" edge="1">
          <mxGeometry relative="1" as="geometry" />
        </mxCell>
        <mxCell id="pNn8hwGSQoI09kQlvMrT-178" value="end date" style="ellipse;whiteSpace=wrap;html=1;align=center;fontFamily=Helvetica;fontSize=11;labelBackgroundColor=none;fillColor=#e1d5e7;strokeColor=#9673a6;" parent="1" vertex="1">
          <mxGeometry x="630" y="540" width="100" height="40" as="geometry" />
        </mxCell>
        <mxCell id="pNn8hwGSQoI09kQlvMrT-191" value="" style="edgeStyle=none;rounded=0;orthogonalLoop=1;jettySize=auto;html=1;strokeColor=default;align=center;verticalAlign=middle;fontFamily=Helvetica;fontSize=11;fontColor=default;labelBackgroundColor=default;endArrow=none;" parent="1" source="pNn8hwGSQoI09kQlvMrT-181" target="Hs6Z9RxVhv4b60qR8Emr-117" edge="1">
          <mxGeometry relative="1" as="geometry" />
        </mxCell>
        <mxCell id="pNn8hwGSQoI09kQlvMrT-181" value="&lt;u&gt;competitions id&lt;br&gt;&lt;/u&gt;" style="ellipse;whiteSpace=wrap;html=1;align=center;fontFamily=Helvetica;fontSize=11;labelBackgroundColor=none;fillColor=#dae8fc;strokeColor=#6c8ebf;" parent="1" vertex="1">
          <mxGeometry x="1510" y="640" width="100" height="40" as="geometry" />
        </mxCell>
        <mxCell id="pNn8hwGSQoI09kQlvMrT-192" value="" style="edgeStyle=none;rounded=0;orthogonalLoop=1;jettySize=auto;html=1;strokeColor=default;align=center;verticalAlign=middle;fontFamily=Helvetica;fontSize=11;fontColor=default;labelBackgroundColor=default;endArrow=none;" parent="1" source="pNn8hwGSQoI09kQlvMrT-182" target="Hs6Z9RxVhv4b60qR8Emr-117" edge="1">
          <mxGeometry relative="1" as="geometry" />
        </mxCell>
        <mxCell id="pNn8hwGSQoI09kQlvMrT-182" value="&lt;u&gt;teams id&lt;br&gt;&lt;/u&gt;" style="ellipse;whiteSpace=wrap;html=1;align=center;fontFamily=Helvetica;fontSize=11;labelBackgroundColor=none;fillColor=#dae8fc;strokeColor=#6c8ebf;" parent="1" vertex="1">
          <mxGeometry x="1510" y="690" width="100" height="40" as="geometry" />
        </mxCell>
        <mxCell id="pNn8hwGSQoI09kQlvMrT-187" value="" style="edgeStyle=none;rounded=0;orthogonalLoop=1;jettySize=auto;html=1;strokeColor=default;align=center;verticalAlign=middle;fontFamily=Helvetica;fontSize=11;fontColor=default;labelBackgroundColor=default;endArrow=none;" parent="1" source="pNn8hwGSQoI09kQlvMrT-183" target="Hs6Z9RxVhv4b60qR8Emr-117" edge="1">
          <mxGeometry relative="1" as="geometry" />
        </mxCell>
        <mxCell id="pNn8hwGSQoI09kQlvMrT-183" value="&lt;u&gt;awards id&lt;br&gt;&lt;/u&gt;" style="ellipse;whiteSpace=wrap;html=1;align=center;fontFamily=Helvetica;fontSize=11;labelBackgroundColor=none;fillColor=#dae8fc;strokeColor=#6c8ebf;" parent="1" vertex="1">
          <mxGeometry x="1520" y="590" width="100" height="40" as="geometry" />
        </mxCell>
        <mxCell id="pNn8hwGSQoI09kQlvMrT-194" value="" style="edgeStyle=none;rounded=0;orthogonalLoop=1;jettySize=auto;html=1;strokeColor=default;align=center;verticalAlign=middle;fontFamily=Helvetica;fontSize=11;fontColor=default;labelBackgroundColor=default;endArrow=none;" parent="1" source="pNn8hwGSQoI09kQlvMrT-193" target="Hs6Z9RxVhv4b60qR8Emr-95" edge="1">
          <mxGeometry relative="1" as="geometry" />
        </mxCell>
        <mxCell id="pNn8hwGSQoI09kQlvMrT-193" value="&lt;u&gt;competitions id&lt;br&gt;&lt;/u&gt;" style="ellipse;whiteSpace=wrap;html=1;align=center;fontFamily=Helvetica;fontSize=11;labelBackgroundColor=none;fillColor=#dae8fc;strokeColor=#6c8ebf;" parent="1" vertex="1">
          <mxGeometry x="820" y="128" width="100" height="40" as="geometry" />
        </mxCell>
        <mxCell id="pNn8hwGSQoI09kQlvMrT-200" value="" style="edgeStyle=none;rounded=0;orthogonalLoop=1;jettySize=auto;html=1;strokeColor=default;align=center;verticalAlign=middle;fontFamily=Helvetica;fontSize=11;fontColor=default;labelBackgroundColor=default;endArrow=none;" parent="1" source="pNn8hwGSQoI09kQlvMrT-195" target="Hs6Z9RxVhv4b60qR8Emr-95" edge="1">
          <mxGeometry relative="1" as="geometry" />
        </mxCell>
        <mxCell id="pNn8hwGSQoI09kQlvMrT-195" value="&lt;u&gt;teams id&lt;br&gt;&lt;/u&gt;" style="ellipse;whiteSpace=wrap;html=1;align=center;fontFamily=Helvetica;fontSize=11;labelBackgroundColor=none;fillColor=#dae8fc;strokeColor=#6c8ebf;" parent="1" vertex="1">
          <mxGeometry x="908" y="156" width="100" height="40" as="geometry" />
        </mxCell>
        <mxCell id="pNn8hwGSQoI09kQlvMrT-198" value="" style="edgeStyle=none;rounded=0;orthogonalLoop=1;jettySize=auto;html=1;strokeColor=default;align=center;verticalAlign=middle;fontFamily=Helvetica;fontSize=11;fontColor=default;labelBackgroundColor=default;endArrow=none;" parent="1" source="pNn8hwGSQoI09kQlvMrT-196" target="Hs6Z9RxVhv4b60qR8Emr-95" edge="1">
          <mxGeometry relative="1" as="geometry" />
        </mxCell>
        <mxCell id="pNn8hwGSQoI09kQlvMrT-196" value="&lt;u&gt;pits id&lt;br&gt;&lt;/u&gt;" style="ellipse;whiteSpace=wrap;html=1;align=center;fontFamily=Helvetica;fontSize=11;labelBackgroundColor=none;fillColor=#dae8fc;strokeColor=#6c8ebf;" parent="1" vertex="1">
          <mxGeometry x="720" y="140" width="100" height="40" as="geometry" />
        </mxCell>
        <mxCell id="pNn8hwGSQoI09kQlvMrT-204" value="" style="edgeStyle=none;rounded=0;orthogonalLoop=1;jettySize=auto;html=1;strokeColor=default;align=center;verticalAlign=middle;fontFamily=Helvetica;fontSize=11;fontColor=default;labelBackgroundColor=default;endArrow=none;" parent="1" source="pNn8hwGSQoI09kQlvMrT-201" target="Hs6Z9RxVhv4b60qR8Emr-59" edge="1">
          <mxGeometry relative="1" as="geometry" />
        </mxCell>
        <mxCell id="pNn8hwGSQoI09kQlvMrT-201" value="&lt;u&gt;pits id&lt;br&gt;&lt;/u&gt;" style="ellipse;whiteSpace=wrap;html=1;align=center;fontFamily=Helvetica;fontSize=11;labelBackgroundColor=none;fillColor=#dae8fc;strokeColor=#6c8ebf;" parent="1" vertex="1">
          <mxGeometry x="410" y="213" width="100" height="40" as="geometry" />
        </mxCell>
        <mxCell id="pNn8hwGSQoI09kQlvMrT-203" value="" style="edgeStyle=none;rounded=0;orthogonalLoop=1;jettySize=auto;html=1;strokeColor=default;align=center;verticalAlign=middle;fontFamily=Helvetica;fontSize=11;fontColor=default;labelBackgroundColor=default;endArrow=none;" parent="1" source="pNn8hwGSQoI09kQlvMrT-202" target="Hs6Z9RxVhv4b60qR8Emr-59" edge="1">
          <mxGeometry relative="1" as="geometry" />
        </mxCell>
        <mxCell id="pNn8hwGSQoI09kQlvMrT-202" value="&lt;u&gt;pits id&lt;br&gt;&lt;/u&gt;" style="ellipse;whiteSpace=wrap;html=1;align=center;fontFamily=Helvetica;fontSize=11;labelBackgroundColor=none;fillColor=#dae8fc;strokeColor=#6c8ebf;" parent="1" vertex="1">
          <mxGeometry x="375" y="260" width="100" height="40" as="geometry" />
        </mxCell>
        <mxCell id="pNn8hwGSQoI09kQlvMrT-207" value="" style="edgeStyle=none;rounded=0;orthogonalLoop=1;jettySize=auto;html=1;strokeColor=default;align=center;verticalAlign=middle;fontFamily=Helvetica;fontSize=11;fontColor=default;labelBackgroundColor=default;endArrow=none;" parent="1" source="pNn8hwGSQoI09kQlvMrT-205" target="Hs6Z9RxVhv4b60qR8Emr-59" edge="1">
          <mxGeometry relative="1" as="geometry" />
        </mxCell>
        <mxCell id="pNn8hwGSQoI09kQlvMrT-205" value="ranking" style="ellipse;whiteSpace=wrap;html=1;align=center;fontFamily=Helvetica;fontSize=11;labelBackgroundColor=none;fillColor=#dae8fc;strokeColor=#6c8ebf;" parent="1" vertex="1">
          <mxGeometry x="386" y="305" width="100" height="40" as="geometry" />
        </mxCell>
        <mxCell id="pNn8hwGSQoI09kQlvMrT-208" value="" style="edgeStyle=none;rounded=0;orthogonalLoop=1;jettySize=auto;html=1;strokeColor=default;align=center;verticalAlign=middle;fontFamily=Helvetica;fontSize=11;fontColor=default;labelBackgroundColor=default;endArrow=none;" parent="1" source="pNn8hwGSQoI09kQlvMrT-206" target="Hs6Z9RxVhv4b60qR8Emr-59" edge="1">
          <mxGeometry relative="1" as="geometry" />
        </mxCell>
        <mxCell id="pNn8hwGSQoI09kQlvMrT-206" value="ranking points" style="ellipse;whiteSpace=wrap;html=1;align=center;fontFamily=Helvetica;fontSize=11;labelBackgroundColor=none;fillColor=#dae8fc;strokeColor=#6c8ebf;" parent="1" vertex="1">
          <mxGeometry x="425" y="345" width="100" height="40" as="geometry" />
        </mxCell>
      </root>
    </mxGraphModel>
  </diagram>
</mxfile>
